<?xml version="1.0" encoding="UTF-8" standalone="no"?>
<!-- Created with Inkscape (http://www.inkscape.org/) -->

<svg
   width="210mm"
   height="297mm"
   viewBox="0 0 210 297"
   version="1.1"
   id="svg5"
   inkscape:version="1.1.1 (3bf5ae0d25, 2021-09-20)"
   sodipodi:docname="asdasd.SVG.svg"
   xmlns:inkscape="http://www.inkscape.org/namespaces/inkscape"
   xmlns:sodipodi="http://sodipodi.sourceforge.net/DTD/sodipodi-0.dtd"
   xmlns="http://www.w3.org/2000/svg"
   xmlns:svg="http://www.w3.org/2000/svg">
  <sodipodi:namedview
     id="namedview7"
     pagecolor="#ffffff"
     bordercolor="#666666"
     borderopacity="1.0"
     inkscape:pageshadow="2"
     inkscape:pageopacity="0.0"
     inkscape:pagecheckerboard="0"
     inkscape:document-units="mm"
     showgrid="false"
     inkscape:zoom="0.54299809"
     inkscape:cx="384.90006"
     inkscape:cy="428.1783"
     inkscape:window-width="1842"
     inkscape:window-height="1051"
     inkscape:window-x="1769"
     inkscape:window-y="-9"
     inkscape:window-maximized="1"
     inkscape:current-layer="layer1" />
  <defs
     id="defs2" />
  <g
     inkscape:label="Camada 1"
     inkscape:groupmode="layer"
     id="layer1">
    <path
       style="fill:#000000;stroke-width:0.264583"
       d="m 106.39901,151.14636 c 0,-0.35618 -0.4635,-0.40532 -3.34618,-0.35474 -2.99064,0.0525 -3.384218,0.007 -3.704168,-0.43087 -0.26402,-0.36106 -0.357987,-1.5528 -0.357987,-4.54004 0,-3.42404 -0.0614,-4.05048 -0.39687,-4.05048 -0.3197,0 -0.39688,-0.41157 -0.39688,-2.11666 v -2.11667 h 2.248955 2.24896 v 2.11667 c 0,1.70509 -0.0772,2.11666 -0.39687,2.11666 -0.33073,0 -0.39688,0.52917 -0.39688,3.175 v 3.175 h 2.24896 c 1.82268,0 2.24896,-0.0752 2.24896,-0.39687 0,-0.32165 0.42627,-0.39688 2.24895,-0.39688 h 2.24896 v 2.11667 2.11667 h -2.24896 c -1.86276,0 -2.24895,-0.071 -2.24895,-0.41346 z m 5.29166,-1.70321 v -2.11667 h 2.24895 c 1.82269,0 2.24896,0.0752 2.24896,0.39688 0,0.3175 0.39688,0.39687 1.98438,0.39687 h 1.98437 v -3.175 c 0,-2.64583 -0.0661,-3.175 -0.39687,-3.175 -0.31971,0 -0.39688,-0.41157 -0.39688,-2.11666 v -2.11667 h 2.24896 2.24896 v 2.11667 c 0,1.70509 -0.0772,2.11666 -0.39688,2.11666 -0.33562,0 -0.39687,0.62996 -0.39687,4.08215 0,3.35826 -0.0737,4.15587 -0.41577,4.49791 -0.49225,0.49225 -0.32957,0.4741 -3.75142,0.41858 -2.31231,-0.0375 -2.71198,0.0175 -2.71198,0.37348 0,0.34749 -0.37696,0.41747 -2.24896,0.41747 h -2.24895 z m -8.20208,-9.7896 v -2.11667 h 2.24896 2.24895 v 2.11667 2.11666 h -2.24895 -2.24896 z m 5.29166,0 v -2.11667 h 2.24896 2.24896 v 2.11667 2.11666 h -2.24896 -2.24896 z m 5.29167,0 v -2.11667 h 2.24895 2.24896 v 2.11667 2.11666 h -2.24896 -2.24895 z m 7.98785,-13.26944 c -0.24597,-0.0949 -1.96528,-1.71249 -3.82067,-3.59461 -3.3502,-3.39848 -3.37343,-3.43055 -3.37343,-4.65608 0,-0.92053 -0.10083,-1.23404 -0.39688,-1.23404 -0.31919,0 -0.39687,-0.40797 -0.39687,-2.08427 0,-1.46202 -0.1104,-2.17589 -0.36978,-2.39116 -0.24041,-0.19952 -1.28175,-0.28028 -2.97656,-0.23083 l -2.60679,0.0761 -0.13229,2.24896 -0.13229,2.24896 -2.18281,0.0769 -2.18281,0.0768 v -2.13567 c 0,-1.59655 0.0944,-2.17191 0.37412,-2.27923 0.20576,-0.079 1.07968,-0.84913 1.94204,-1.71149 l 1.56792,-1.56793 h 3.5571 3.5571 l 1.44617,1.47877 c 0.79539,0.81332 1.71406,1.58428 2.04148,1.71324 0.54415,0.21433 0.59531,0.4063 0.59531,2.23371 0,1.53301 -0.0925,2.03474 -0.39687,2.15152 -0.21828,0.0838 -0.39688,0.46911 -0.39688,0.85632 0,0.54081 0.62978,1.33166 2.7165,3.41128 l 2.7165,2.70725 h 23.42216 23.42216 l 1.11343,-1.1345 1.11342,-1.13449 V 74.686601 27.863631 l -7.47619,-7.47274 -7.47619,-7.47274 h -42.66235 c -38.330648,0 -42.66234,0.0416 -42.66234,0.40951 0,0.78221 -1.325441,1.70716 -2.446343,1.70716 -0.84283,0 -1.22614,-0.17998 -1.972199,-0.92604 l -0.926041,-0.92605 h -6.1795 c -6.155155,0 -6.183341,0.003 -7.154213,0.66146 -1.178091,0.79948 -1.543723,0.81624 -2.885245,0.13229 -0.877694,-0.44747 -1.560295,-0.52916 -4.421569,-0.52916 -1.861002,0 -3.383639,0.0925 -3.383639,0.20553 0,0.11304 0.806659,1.00601 1.792577,1.98438 l 1.792578,1.77884 h 6.261599 c 3.888997,0 6.32356,-0.10026 6.42512,-0.26459 0.324787,-0.52551 2.127129,-0.29607 2.732006,0.34779 1.666377,1.77377 -0.38835,4.36763 -2.567263,3.24087 -0.661387,-0.34202 -1.918718,-0.41366 -7.259985,-0.41366 h -6.460062 l -2.899808,-2.84427 c -1.594895,-1.56435 -3.268554,-3.11365 -3.719242,-3.4429 -1.036632,-0.7573 -1.301133,-1.8598 -0.733277,-3.05647 0.75304,-1.5869099 2.694787,-1.9901699 4.058338,-0.84281 0.74349,0.6256 0.959204,0.66145 3.979741,0.66145 2.966085,0 3.214676,-0.0393 3.488832,-0.55156 0.288954,-0.5399199 1.725414,-1.3005199 2.456134,-1.3005199 0.202648,0 0.815024,0.30305 1.360835,0.67345 l 0.992384,0.6734499 7.180476,-0.13325 c 3.949261,-0.0733 7.597193,-0.12776 8.106516,-0.12103 0.509323,0.007 20.749948,0.0603 44.97915,0.11909 l 44.05313,0.10688 8.26823,8.27901 8.26822,8.27901 v 47.79267 47.792679 l -2.03931,2.00652 c -1.12161,1.10359 -2.10388,2.00715 -2.18281,2.00792 -11.35789,0.11085 -48.59572,0.0791 -48.90877,-0.0417 z m -68.987689,-3.73566 c -0.07399,-0.19281 -0.101247,-2.01171 -0.06057,-4.042 l 0.07396,-3.69142 3.466436,-0.1323 c 2.382938,-0.0909 3.60277,-0.24579 3.902604,-0.49541 0.395261,-0.32907 0.436168,-1.69777 0.436168,-14.5936 V 85.463261 l -1.256771,-1.02385 c -2.341784,-1.90778 -2.120585,-1.82196 -2.873343,-1.11478 -0.500964,0.47063 -0.974971,0.63414 -1.838314,0.63414 -1.490139,0 -2.473762,-0.8973 -2.681512,-2.4462 -0.116086,-0.86548 -0.443244,-1.3681 -1.70003,-2.61177 l -1.556278,-1.54004 v -2.9731 c 0,-2.73499 -0.05298,-3.05116 -0.661459,-3.94781 -0.363802,-0.53609 -0.661458,-1.23914 -0.661458,-1.56233 0,-0.32318 0.297656,-1.02623 0.661458,-1.56232 0.555219,-0.81816 0.661459,-1.28305 0.661459,-2.89443 0,-1.14032 -0.128902,-2.04861 -0.3175,-2.2372 -0.191252,-0.19125 -1.117202,-0.3175 -2.32866,-0.3175 h -2.011159 l -3.227591,-3.26474 -3.22759,-3.26474 v -2.5561 c 0,-2.09569 -0.07148,-2.55609 -0.396875,-2.55609 -0.319705,0 -0.396875,-0.41157 -0.396875,-2.11667 v -2.11666 h 2.248958 c 1.822685,0 2.248958,0.0752 2.248958,0.39687 0,0.32079 0.419573,0.39688 2.188654,0.39688 h 2.188654 l 2.176971,-2.18834 2.176971,-2.18834 v -3.51092 c 0,-3.15167 -0.05685,-3.58781 -0.555625,-4.26244 -0.61727,-0.8349 -0.727693,-2.28103 -0.243287,-3.18615 0.321592,-0.6009 1.73877,-1.33256 2.581079,-1.33256 0.681662,0 5.89075,-5.29518 5.89075,-5.98811 0,-0.30531 0.246766,-0.86883 0.54837,-1.25225 0.423571,-0.53849 0.781301,-0.69714 1.571884,-0.69714 0.562933,0 1.0971,0.11906 1.187037,0.26458 0.09809,0.15871 1.872404,0.26458 4.433959,0.26458 h 4.270439 l 3.080654,-3.0427 3.080653,-3.04271 2.092147,-0.008 c 1.418839,-0.006 2.257436,-0.13343 2.605739,-0.39688 0.657486,-0.49729 1.754915,-0.49729 2.412402,0 0.413628,0.31286 1.617958,0.3901 6.187654,0.39688 l 5.674063,0.008 0.73005,0.69943 0.73005,0.69943 0.95524,-0.83871 0.95524,-0.83871 12.516435,0.0243 c 13.99546,0.0272 13.38544,-0.0567 13.94151,1.91743 0.23387,0.83023 0.89313,1.70604 2.58193,3.43001 l 2.26787,2.31511 h 2.14885 c 1.18186,0 2.55356,-0.13508 3.04822,-0.30016 0.56656,-0.18909 2.18033,-1.55983 4.3609,-3.70417 1.96039,-1.92782 3.68149,-3.40766 3.96875,-3.41242 0.27898,-0.005 0.73835,-0.18322 1.02082,-0.39688 0.65749,-0.4973 1.75492,-0.4973 2.4124,0 0.28248,0.21366 0.99483,0.39225 1.58302,0.39688 1.02441,0.008 1.23879,0.17906 5.09323,4.06255 l 4.0238,4.05414 v 3.0613 c 0,2.51685 0.0727,3.08921 0.40882,3.21818 0.47954,0.18402 1.26826,1.9305 1.08615,2.40509 -0.069,0.1798 1.41188,1.86082 3.29083,3.73561 l 3.41629,3.4087 v 33.82705 c 0,30.987309 0.0377,33.968639 0.4494,35.513599 l 0.4494,1.68654 1.8657,0.0767 1.8657,0.0767 v 3.96875 3.96875 l -4.04182,0.0731 -4.04182,0.0731 0.0731,-4.04182 0.0731,-4.04182 0.71017,-0.082 0.71017,-0.082 -0.37863,-1.24088 c -0.31997,-1.04864 -0.37845,-6.4456 -0.37749,-34.836869 l 0.001,-33.596 -2.97418,-2.98265 c -2.07978,-2.08576 -3.15838,-2.98265 -3.58689,-2.98265 -0.83539,0 -2.09756,-0.68572 -2.44004,-1.32565 -0.43366,-0.81031 -2.45597,-0.73199 -3.48637,0.13503 -0.89923,0.75666 -1.7588,0.83515 -2.86746,0.26184 -0.96114,-0.49702 -1.31762,-1.14132 -1.31762,-2.38147 0,-2.20834 2.70306,-3.31879 4.46656,-1.83491 0.67842,0.57085 1.02018,0.6632 2.20311,0.59531 l 1.40012,-0.0804 0.076,-2.76444 0.076,-2.76445 -3.247,-3.25482 c -1.78586,-1.79016 -3.4274,-3.25104 -3.64786,-3.24641 -0.22047,0.005 -0.63196,0.18322 -0.91444,0.39687 -0.61008,0.46145 -1.56008,0.50089 -2.31631,0.0962 -0.48895,-0.26168 -0.87245,0.0331 -3.66095,2.81438 -2.05129,2.04594 -3.16574,3.36142 -3.26401,3.85278 -0.27352,1.3676 -2.4787,1.94141 -3.36356,0.87522 -0.22303,-0.26886 -0.97475,-0.37109 -2.72739,-0.37109 h -2.41951 l -2.87298,-2.88191 c -2.43115,-2.43872 -3.03301,-2.90751 -3.91361,-3.04832 -0.78526,-0.12557 -1.15047,-0.35942 -1.48814,-0.95288 l -0.4475,-0.78646 -10.49947,-0.002 -10.499458,-0.002 -0.975627,1.19062 c -1.32279,1.61429 -2.08849,1.61429 -3.411269,0 l -0.975627,-1.19062 -5.075516,0.008 c -4.043317,0.007 -5.179962,0.0874 -5.589105,0.39687 -0.666134,0.50384 -2.107968,0.49904 -2.529118,-0.008 -0.221575,-0.26698 -0.818055,-0.39687 -1.822471,-0.39687 h -1.493092 l -3.166729,3.175 -3.166729,3.175 h -4.518501 c -5.570789,0 -5.615805,0.0182 -9.282782,3.75253 -2.243338,2.28455 -2.70551,2.89776 -2.833793,3.75989 -0.0843,0.56656 -0.396121,1.28861 -0.692925,1.60455 -0.479579,0.51049 -0.539644,0.91856 -0.539644,3.66622 v 3.09181 h 7.339504 7.339505 l 4.644403,-4.63903 4.644406,-4.63903 h 7.385867 7.385865 l 1.937649,1.93765 1.937652,1.93765 -0.0126,15.05619 -0.0126,15.0562 4.652545,4.65854 c 2.5589,2.5622 4.74881,4.81431 4.86647,5.00468 0.11766,0.19038 0.15408,0.575 0.0809,0.85472 -0.0732,0.2799 0.0768,0.74042 0.33364,1.0242 0.36162,0.39958 0.43048,0.77942 0.30598,1.68777 -0.15256,1.11302 -0.10767,1.22001 0.89018,2.1215 l 1.05083,0.94937 h 4.02297 4.02298 l 0.99239,-0.96904 c 0.91809,-0.89649 0.98082,-1.05339 0.83797,-2.09561 -0.13307,-0.97089 -0.0601,-1.2209 0.5281,-1.80909 0.78038,-0.78038 2.28619,-0.93272 2.82323,-0.28563 0.42023,0.50635 2.08869,0.50126 2.76255,-0.008 1.78922,-1.3533 4.1245,0.79429 3.04897,2.80393 -0.25711,0.48042 -0.1733,0.51177 1.36823,0.51177 1.13277,0 1.78696,-0.13108 2.10907,-0.42258 0.25682,-0.23242 0.87679,-0.4342 1.3777,-0.4484 1.61298,-0.0457 2.82723,1.17929 2.82723,2.85228 0,0.91243 -1.2038,2.20571 -2.23277,2.39875 -0.95848,0.17981 -2.44761,-0.41861 -2.70395,-1.08659 -0.1053,-0.27437 -0.58935,-0.38304 -1.7062,-0.38304 h -1.55919 v 4.86239 c 0,3.99935 0.0705,4.92086 0.39688,5.19178 0.633,0.525339 0.49573,2.041859 -0.25256,2.790149 -1.80486,1.80486 -4.64871,-0.62302 -3.1822,-2.71675 0.33708,-0.481249 0.39028,-1.586699 0.33073,-6.871889 l -0.071,-6.29839 -1.12523,-0.0814 c -0.96925,-0.0701 -1.15781,0.003 -1.36027,0.52917 -0.12926,0.33581 -1.06985,1.41423 -2.09019,2.3965 l -1.85515,1.78594 -5.25125,-0.004 c -2.88819,-0.002 -5.3703,-0.0932 -5.51582,-0.20207 -0.14552,-0.1089 -1.24685,-1.22362 -2.4474,-2.47716 -2.3905,-2.49601 -2.64517,-3.19925 -1.72355,-4.75942 l 0.45926,-0.77747 -4.824885,-4.80527 -4.824881,-4.80526 v -15.08558 -15.08558 l -1.11339,-1.13449 -1.113422,-1.13449 h -6.219685 -6.219684 l -4.787832,4.7625 -4.787831,4.7625 h -8.323349 -8.32335 l -2.50309,2.51354 -2.503091,2.51354 h -2.849496 c -2.356497,0 -2.849497,0.0687 -2.849497,0.39688 0,0.21828 -0.178593,0.39687 -0.396875,0.39687 -0.318724,0 -0.396875,0.4048 -0.396875,2.05575 v 2.05574 l 2.452367,2.44217 c 2.415264,2.40522 2.47173,2.44217 3.732119,2.44217 0.979052,0 1.464458,-0.15542 2.065849,-0.66145 1.727485,-1.45359 4.449665,-0.23215 4.449665,1.99655 0,0.62322 -0.785072,2.10449 -1.115379,2.10449 -0.114146,0 -0.207538,0.85537 -0.207538,1.90084 0,1.38511 0.149477,2.20961 0.550936,3.03892 0.469354,0.96955 0.506529,1.27263 0.251049,2.04674 -0.164937,0.49977 -0.472389,1.05183 -0.683227,1.22681 -0.286346,0.23765 -0.383341,0.96519 -0.383341,2.87538 v 2.55724 l 1.280286,1.26104 c 0.704158,0.69356 1.388767,1.24054 1.521355,1.21549 0.687478,-0.12988 1.39137,0.0725 1.899907,0.54629 0.312396,0.29104 0.845219,0.52916 1.18405,0.52916 0.36971,0 1.643753,0.81626 3.186065,2.04126 l 2.570004,2.04126 v 15.653949 15.65396 l -1.18178,0.96838 -1.18178,0.96838 -0.07499,2.8338 -0.07499,2.83381 -3.908182,0.0733 c -3.052841,0.0572 -3.937624,-0.003 -4.042709,-0.27733 z m 11.377084,0 c -0.07399,-0.19281 -0.101248,-2.01171 -0.06057,-4.042 l 0.07396,-3.69142 0.727604,-0.0837 0.727605,-0.0837 V 96.80592 78.864251 l 3.76574,-3.71911 c 2.071158,-2.04552 3.695015,-3.78985 3.60857,-3.87629 -0.08645,-0.0864 -0.48849,-0.0312 -0.893434,0.12276 -1.05763,0.4021 -2.427404,-0.11358 -3.060782,-1.1523 -0.613418,-1.00599 -0.63603,-1.5406 -0.108323,-2.56107 0.606001,-1.17188 1.825963,-1.70872 3.049801,-1.34205 0.541192,0.16215 1.131753,0.47286 1.312355,0.69047 0.366916,0.44211 1.586489,0.54287 1.586489,0.13107 0,-0.15434 0.881944,-0.26458 2.116667,-0.26458 h 2.116666 v 1.98437 1.98438 h -1.5875 c -1.573839,0 -1.5875,0.007 -1.5875,0.76416 0,0.6323 -0.639167,1.39395 -3.704166,4.41397 l -3.704167,3.64982 v 17.546439 17.54644 h 1.858976 1.858973 l -0.07304,4.0349 -0.07304,4.0349 -3.908181,0.0733 c -3.052842,0.0572 -3.937625,-0.003 -4.042709,-0.27733 z m 11.441353,0.16676 c -0.100746,-0.10074 -0.183171,-1.49503 -0.183171,-3.09842 v -2.91525 l -2.248959,-2.29825 -2.248958,-2.29825 V 99.92141 87.637781 l 1.27567,-2.39951 c 1.033357,-1.94372 1.230765,-2.5193 1.039268,-3.03013 -0.323946,-0.86413 0.200398,-2.51728 0.955317,-3.01193 0.331396,-0.21714 0.95155,-0.415 1.37812,-0.4397 0.577466,-0.0334 1.299376,-0.5559 2.826104,-2.04532 l 2.050521,-2.00042 v -1.92443 c 0,-1.53422 -0.08047,-1.92444 -0.396875,-1.92444 -0.3175,0 -0.396875,-0.39688 -0.396875,-1.98438 v -1.98437 h 2.116667 2.116666 v 1.98437 c 0,1.5875 -0.07937,1.98438 -0.396875,1.98438 -0.325699,0 -0.396875,0.46363 -0.396875,2.5852 v 2.58521 l -2.340687,2.32984 c -1.777902,1.76966 -2.316384,2.46811 -2.239607,2.9049 0.144089,0.81976 -0.849117,2.27816 -1.770134,2.59923 -0.585079,0.20396 -1.051462,0.75957 -1.846398,2.19964 l -1.06359,1.92675 v 11.616189 11.61619 l 1.792578,1.77884 1.792576,1.77884 h 3.102216 3.102213 v 1.32292 1.32292 h 5.896925 5.89692 l 1.23159,-1.25677 c 1.04324,-1.06458 1.24402,-1.43885 1.31297,-2.4474 l 0.0814,-1.19062 h 2.116655 2.11667 v 2.11666 2.11667 l -1.18844,0.0845 c -1.05449,0.075 -1.387068,0.27626 -2.950825,1.78594 l -1.7624,1.70145 h -6.361233 -6.361229 l -0.08064,1.25678 -0.08064,1.25677 -3.851725,0.0729 c -2.118449,0.0401 -3.934153,-0.009 -4.034895,-0.11024 z m 63.581402,-4.85058 v -1.85898 h -7.7769 c -6.66873,0 -7.79861,0.0565 -7.9292,0.39688 -0.11797,0.30742 -0.63367,0.39687 -2.28797,0.39687 h -2.13567 l 0.0769,-2.18281 0.0768,-2.18281 2.05453,-0.0774 c 1.65631,-0.0624 2.08488,0.002 2.21112,0.33073 0.13618,0.35488 1.16816,0.40807 7.91592,0.40807 h 7.75933 l 0.0837,-0.7276 c 0.0767,-0.66632 0.18957,-0.7344 1.34049,-0.80825 1.09966,-0.0706 1.25677,-0.15443 1.25677,-0.67092 0,-0.40639 1.1672,-1.75809 3.74649,-4.33872 l 3.74648,-3.74843 -0.18295,-8.2193 -0.18296,-8.219289 0.71727,-1.22393 c 0.52853,-0.90186 0.70164,-1.5259 0.65787,-2.37154 -0.0327,-0.63119 0.09,-1.41771 0.27262,-1.74784 0.18262,-0.33012 0.29843,-0.77881 0.25737,-0.99709 -0.0411,-0.21828 -1.21341,-1.54642 -2.60519,-2.95142 l -2.53052,-2.55455 0.0512,-4.12618 c 0.0444,-3.58041 -0.003,-4.12619 -0.36074,-4.12619 -0.33627,0 -0.41196,-0.36458 -0.41196,-1.98437 v -1.98438 h 2.11667 2.11666 v 1.98438 c 0,1.5875 -0.0794,1.98437 -0.39687,1.98437 -0.33366,0 -0.39688,0.58309 -0.39688,3.66032 v 3.66032 l 2.64584,2.57513 c 1.4552,1.41633 2.64583,2.76684 2.64583,3.00115 0,0.2343 0.36523,0.73233 0.81163,1.10673 1.66703,1.39817 1.18618,3.74241 -0.95079,4.6353 -1.66302,0.69485 -1.71292,1.00294 -1.71292,10.574389 v 8.60211 l -3.57188,3.48861 c -1.96453,1.91873 -3.57187,3.58358 -3.57187,3.69965 0,0.11608 0.56554,0.24734 1.25677,0.29169 l 1.25677,0.0807 v 3.96875 3.96875 l -4.0349,0.073 -4.03489,0.073 z m 11.4363,-2.18278 0.0731,-4.04182 1.39398,-0.0802 1.39398,-0.0801 -0.0153,-11.94211 -0.0153,-11.942119 1.99475,-2.00651 1.99475,-2.00652 v -7.94408 -7.9441 l -1.00335,-0.97973 c -0.95897,-0.93643 -2.43623,-1.37008 -2.43623,-0.71516 0,0.15434 -0.88194,0.26458 -2.11666,0.26458 h -2.11667 v -1.98437 c 0,-1.62588 0.075,-1.98438 0.41493,-1.98438 0.34989,0 0.40387,-0.35321 0.34437,-2.25362 l -0.0706,-2.25362 1.34226,-1.3844 c 0.87897,-0.90657 1.40069,-1.69925 1.51156,-2.29661 0.24385,-1.31389 0.80752,-2.04067 1.84933,-2.3845 2.07308,-0.68417 4.01082,1.26217 3.32511,3.33988 -0.33969,1.02928 -1.57894,1.93865 -2.64403,1.94022 -0.4306,5.3e-4 -1.02764,0.36324 -1.65365,1.00433 -0.91696,0.93906 -0.97974,1.10858 -0.97974,2.64583 0,1.2836 0.0867,1.64249 0.39688,1.64249 0.21828,0 0.39687,0.11907 0.39687,0.26459 0,0.14552 0.54988,0.26458 1.22195,0.26458 1.15133,0 1.32796,0.10332 3.05637,1.78783 l 1.83442,1.78784 -0.009,9.18906 -0.009,9.18907 -1.98866,1.88903 -1.98865,1.88903 v 11.461239 11.46124 l 1.25677,0.0806 1.25677,0.0807 v 3.96875 3.96875 l -4.04182,0.0731 -4.04183,0.0731 0.0731,-4.04182 z m -42.0727,-1.05438 0.077,-2.19369 h 2.11667 2.11666 v 2.11666 2.11667 l -2.19368,0.077 -2.19369,0.077 z m -68.45015,-4.54473 c -1.066337,-0.46473 -1.450778,-0.97892 -1.636914,-2.18939 -0.119638,-0.77801 -0.550187,-1.42783 -1.83928,-2.77601 l -1.683078,-1.76021 v -6.26916 -6.269159 l 1.683078,-1.76021 c 1.298841,-1.35837 1.719269,-1.99538 1.841605,-2.79034 0.304548,-1.97899 2.170962,-3.03054 3.843664,-2.16555 0.934513,0.48326 1.347502,1.1245 1.410103,2.18946 0.02603,0.44282 0.420051,1.1414 0.977936,1.73382 l 0.93434,0.99219 h 4.457359 c 3.524976,0 4.624687,-0.0865 5.257282,-0.41366 0.986578,-0.51018 2.194428,-0.29306 2.745346,0.49348 1.263848,1.8044 -0.691362,4.21998 -2.609604,3.22406 -0.592688,-0.30772 -1.850265,-0.39346 -5.770525,-0.39346 h -5.012678 l -1.447737,-1.36924 c -1.904363,-1.80107 -2.496343,-1.83754 -4.142982,-0.25523 l -1.256771,1.20767 v 5.443849 5.44385 l 1.265859,1.24683 c 0.757975,0.74657 1.506334,1.24682 1.865223,1.24682 0.831822,0 2.087522,0.69202 2.435491,1.34221 0.74654,1.39492 0.19048,3.13916 -1.213091,3.80519 -1.023827,0.48584 -1.083832,0.48704 -2.104626,0.0422 z m 80.57818,-0.47423 c -1.21766,-0.4505 -1.33528,-1.06254 -1.33706,-6.95704 l -0.002,-5.56353 -0.81352,-0.46302 c -0.98429,-0.56022 -2.30609,-0.58562 -3.00402,-0.0577 -0.28256,0.21365 -0.82535,0.38846 -1.20629,0.38846 -0.38093,0 -0.92372,-0.17481 -1.2062,-0.38846 -0.66046,-0.49955 -2.2188,-0.49955 -2.87926,0 -2.00003,1.51274 -4.45149,-1.41739 -2.67343,-3.195439 0.74828,-0.74829 2.2648,-0.88556 2.79014,-0.25256 0.42024,0.506349 2.08869,0.501269 2.76255,-0.008 0.66614,-0.50383 2.10797,-0.49904 2.52912,0.008 0.42023,0.506349 2.08869,0.501269 2.76255,-0.008 0.85243,-0.64474 2.07346,-0.48455 2.90251,0.38078 l 0.73697,0.769239 -0.0377,6.37451 -0.0377,6.37452 h 7.81687 7.81687 V 91.224211 75.338171 l -6.91882,0.0355 -6.91882,0.0355 -2.08553,-2.08553 -2.08553,-2.08553 0.006,-15.09058 c 0.003,-8.29983 0.0802,-15.46228 0.17106,-15.91657 0.12316,-0.61579 0.0228,-1.00698 -0.39423,-1.53718 -0.5304,-0.6743 -0.55997,-1.01479 -0.56993,-6.5625 l -0.0105,-5.8513 -1.15694,-1.25677 -1.15695,-1.25677 h -3.19818 c -1.75899,0 -3.19817,0.1055 -3.19817,0.23444 0,0.12894 -0.4223,0.43483 -0.93844,0.67975 -1.21343,0.57581 -2.2885,0.34094 -3.15544,-0.68936 -1.20515,-1.43223 -0.71645,-3.33978 1.04407,-4.07537 0.99424,-0.41542 1.89161,-0.25513 2.70867,0.48382 0.51448,0.4653 1.04013,0.54101 4.36563,0.62883 3.56992,0.0943 3.81022,0.13422 4.30988,0.71652 0.29105,0.33917 1.15425,1.35563 1.91823,2.2588 l 1.38907,1.64213 v 5.93939 c 0,5.42832 0.0389,5.93938 0.45264,5.93938 0.24896,0 2.31119,-1.84546 4.58274,-4.10104 l 4.13008,-4.10104 h 1.35478 c 0.74513,0 1.4329,-0.12641 1.52838,-0.2809 0.42909,-0.69427 1.4994,-0.79836 2.62188,-0.25498 0.90563,0.43841 1.63561,0.53588 4.01324,0.53588 1.90764,0 3.01535,-0.10909 3.22376,-0.3175 0.46471,-0.46472 0.39824,-3.91912 -0.0878,-4.56171 -0.97525,-1.28939 0.0824,-3.32287 1.7282,-3.32287 1.64585,0 2.70345,2.03348 1.72821,3.32287 -0.27692,0.36612 -0.39088,1.23889 -0.39688,3.03958 l -0.008,2.52599 -1.00334,0.97974 -1.00335,0.97973 h -3.7185 c -2.92311,0 -3.90539,0.0932 -4.59216,0.43584 -0.71422,0.3563 -1.02683,0.38044 -1.71308,0.13229 -0.46169,-0.16695 -1.24929,-0.30354 -1.75024,-0.30354 -0.81795,0 -1.28224,0.37215 -4.55457,3.65076 -2.00408,2.00793 -3.56989,3.72466 -3.47958,3.81498 0.0903,0.0903 -0.0365,0.58721 -0.28186,1.10422 -0.30147,0.63531 -0.73762,1.04544 -1.34553,1.26526 l -0.89946,0.32525 v 13.78036 13.78037 l 1.39739,1.38002 1.39738,1.38003 h 7.31886 c 7.26317,0 7.322,0.005 7.73075,0.58804 0.36269,0.51782 0.41187,2.6769 0.41187,18.08295 0,16.709009 -0.0221,17.514879 -0.49127,17.939499 -0.43743,0.39587 -1.49746,0.45111 -9.67313,0.50403 -5.05003,0.0327 -9.40012,-0.0213 -9.66688,-0.12 z m -65.980476,-1.28724 c -0.914659,-0.71947 -1.177546,-2.14335 -0.613934,-3.32526 0.235159,-0.49313 0.548551,-0.89661 0.696426,-0.89661 0.683337,0 0.08112,-0.85888 -2.183503,-3.11408 l -2.452367,-2.44217 h -3.500758 c -1.925416,0 -3.500757,0.1055 -3.500757,0.23444 0,0.12894 -0.421252,0.43433 -0.936116,0.67865 -0.758934,0.36013 -1.103429,0.389 -1.82009,0.15248 -1.31549,-0.43415 -1.874003,-1.19191 -1.874003,-2.54254 0,-2.27653 2.262035,-3.42251 4.178938,-2.11712 0.962621,0.65554 1.157767,0.68367 4.741827,0.68367 h 3.73789 l 3.294892,3.26636 c 2.711752,2.68826 3.29483,3.40237 3.294547,4.03489 -1.91e-4,0.42332 0.282074,1.1045 0.628385,1.51645 1.469062,1.74752 0.284832,4.41147 -1.96107,4.41147 -0.649746,0 -1.302147,-0.20384 -1.730307,-0.54063 z m 21.166667,0 c -1.362978,-1.07212 -1.147403,-3.57912 0.375483,-4.36664 1.067747,-0.55215 1.882637,-0.47673 2.993408,0.27706 l 0.974715,0.66146 h 13.614291 c 13.516352,0 13.614282,-0.004 13.614282,-0.53847 0,-0.29616 -0.19194,-0.83142 -0.42654,-1.18946 -0.29037,-0.44316 -0.37353,-0.93353 -0.2605,-1.53603 0.15874,-0.84615 0.0496,-0.99736 -2.48388,-3.44001 -2.95851,-2.85249 -3.25395,-3.56396 -2.00048,-4.817429 1.3811,-1.3811 3.5839,-0.4641 3.5839,1.491929 0,0.78074 0.25936,1.17046 1.74946,2.62878 3.20444,3.13611 3.88176,4.56834 2.8542,6.03539 -0.23289,0.33248 -0.35806,0.85448 -0.27817,1.15998 0.0799,0.3055 0.018,0.79332 -0.13763,1.08403 -0.3638,0.67978 -1.53332,1.76514 -1.91139,1.77386 -0.16065,0.004 -6.52214,8e-4 -14.136649,-0.007 l -13.844561,-0.0134 -0.793967,0.66808 c -1.000551,0.84191 -2.507633,0.897 -3.485972,0.12745 z m 26.904139,-4.21941 c -0.73512,-0.29696 -1.41737,-1.28166 -1.41737,-2.04571 0,-0.60248 -7.5e-4,-0.60258 -4.324615,-0.60258 -5.503677,0 -5.200382,0.25968 -5.200382,-4.45261 v -3.484889 h 1.322917 1.322916 v 2.513539 2.51354 h 4.220729 4.220735 l 1.33551,1.33552 c 1.08852,1.08851 1.33552,1.50445 1.33552,2.24896 0,0.86977 -0.72726,1.97177 -1.30128,1.97177 -0.13362,0 -0.40151,0.0521 -0.59531,0.11575 -0.1938,0.0637 -0.60752,0.0127 -0.91937,-0.11329 z m -5.826525,-7.82714 c -0.60344,-0.60345 -0.66203,-0.82342 -0.51485,-1.93293 0.15492,-1.167809 0.11328,-1.291029 -0.61924,-1.832609 -0.767308,-0.56729 -0.966727,-0.58061 -8.692888,-0.58061 -6.642182,0 -8.040278,0.0662 -8.736912,0.41373 -0.702726,0.35057 -0.939742,0.36066 -1.552393,0.0661 -0.952486,-0.45789 -1.532514,-1.51823 -1.311719,-2.39794 0.370422,-1.47588 1.740193,-2.09877 3.111235,-1.4148 0.721971,0.36017 2.082808,0.42244 9.230887,0.42244 h 8.38408 l 1.56329,1.69336 c 2.263925,2.45229 2.753915,3.184479 2.753915,4.115209 0,1.88768 -2.267545,2.79586 -3.615405,1.448 z M 91.967196,80.531221 c -1.344123,-1.34412 -0.380831,-3.5839 1.541378,-3.5839 1.859211,0 2.731901,2.24509 1.393089,3.5839 -0.409371,0.40937 -0.951727,0.64943 -1.467233,0.64943 -0.515507,0 -1.057863,-0.24006 -1.467234,-0.64943 z m 5.291669,0 c -1.34413,-1.34412 -0.38083,-3.5839 1.54137,-3.5839 1.859215,0 2.731895,2.24509 1.393085,3.5839 -0.409368,0.40937 -0.951718,0.64943 -1.467225,0.64943 -0.51551,0 -1.05786,-0.24006 -1.46723,-0.64943 z m 10.583325,0 c -0.73865,-0.73865 -0.85132,-1.89293 -0.26097,-2.67344 0.24696,-0.32652 0.39152,-1.14361 0.39687,-2.24333 0.008,-1.71915 7.9e-4,-1.73737 -1.25744,-2.97656 -0.75798,-0.74658 -1.50634,-1.24682 -1.86522,-1.24682 -1.40645,0 -2.68976,-1.27456 -2.68976,-2.67142 0,-0.75412 0.70949,-2.02737 1.30827,-2.34782 0.27996,-0.14984 0.94273,-0.27243 1.47282,-0.27243 1.2923,0 2.51058,1.17429 2.51058,2.41992 0,0.71491 0.29406,1.16984 1.62275,2.51044 l 1.62275,1.6373 -0.0478,2.36191 c -0.0375,1.85123 0.0407,2.43538 0.36162,2.70169 1.16813,0.96947 -0.0594,3.44999 -1.70725,3.44999 -0.51551,0 -1.05786,-0.24006 -1.46723,-0.64943 z m 5.29166,0 c -0.73865,-0.73865 -0.85132,-1.89293 -0.26097,-2.67344 0.28811,-0.38092 0.39034,-1.29955 0.39573,-3.5563 l 0.007,-3.04271 -2.99471,-2.97656 -2.9947,-2.97656 h -2.20034 -2.20034 l -2.22485,-2.1852 -2.224845,-2.18521 0.0185,-9.34519 0.0186,-9.34518 -0.66729,-0.79304 c -1.14854,-1.36496 -0.8406,-3.28599 0.65033,-4.05698 1.231917,-0.63705 2.074445,-0.50004 3.074455,0.49997 1.10058,1.10057 1.16774,2.07101 0.23813,3.44087 l -0.66146,0.97471 v 8.66239 8.66239 l 1.39738,1.38003 1.39738,1.38002 h 2.09089 2.09089 l 3.94734,3.92318 3.94733,3.92317 -0.0382,3.57595 c -0.0314,2.93142 0.0353,3.63696 0.3696,3.91443 1.16675,0.96834 -0.0623,3.44869 -1.70885,3.44869 -0.5155,0 -1.05786,-0.24006 -1.46723,-0.64943 z m 11.55052,-9.49498 c -1.42717,-0.82352 -1.7138,-2.47782 -0.69058,-3.98563 l 0.66146,-0.97471 v -9.16986 -9.16985 l 2.98923,-2.98923 2.98923,-2.98923 h 3.10007 3.10007 l 0.93614,0.8599 c 1.94803,1.78937 1.71396,4.69635 -0.37814,4.69635 -0.75985,0 -1.65573,-1.23708 -1.46016,-2.01628 0.15699,-0.6255 0.14374,-0.62955 -2.05933,-0.62955 h -2.21734 l -2.17697,2.18834 -2.17697,2.18834 v 8.55524 8.55523 l 0.66146,0.7861 c 0.86791,1.03145 0.8964,2.55953 0.0657,3.52523 -0.71896,0.83584 -2.3894,1.12039 -3.3439,0.56961 z m -39.98119,-2.49265 v -2.3183 l -4.09543,-4.08904 -4.09543,-4.08903 -0.931653,0.90299 c -0.556094,0.53899 -0.931654,1.15892 -0.931654,1.53787 0,2.14976 -2.653329,3.47136 -4.326691,2.15509 -1.9177,-1.50846 -0.87458,-4.74585 1.529159,-4.74585 0.636868,0 1.105022,-0.27486 1.970908,-1.15713 l 1.135636,-1.15713 -0.08657,-2.57186 c -0.08191,-2.43324 -0.053,-2.59905 0.536263,-3.07621 0.775438,-0.62791 1.140627,-0.63286 1.890519,-0.0256 0.542303,0.43913 0.587875,0.68522 0.551236,2.97657 l -0.03994,2.49785 4.902034,4.89211 c 4.356851,4.34803 4.902035,4.98805 4.902035,5.75469 0,0.7437 0.09117,0.86258 0.661459,0.86258 0.646758,0 0.661458,0.0441 0.661458,1.98437 v 1.98438 h -2.116667 -2.116666 z m 55.82707,-4.16398 c 0,-1.65787 0.071,-1.98438 0.43128,-1.98438 0.35791,0 0.40723,-0.21347 0.28987,-1.25467 l -0.14142,-1.25467 2.62055,-2.66302 c 1.8915,-1.92215 2.62055,-2.84482 2.62055,-3.31649 0,-0.45638 -0.54763,-1.1969 -1.81579,-2.45534 l -1.81579,-1.80188 -1.65457,0.0892 c -1.52792,0.0824 -1.69494,0.0358 -2.18195,-0.60806 -0.47293,-0.62525 -0.48976,-0.7755 -0.163,-1.45521 0.36099,-0.75093 0.38642,-0.75797 2.74097,-0.75797 h 2.37659 l 2.26618,2.18282 c 1.85438,1.78617 2.41661,2.18281 3.09409,2.18281 1.20834,0 2.18066,0.94981 2.36285,2.30813 0.13638,1.01674 0.0662,1.20021 -0.78365,2.05011 -0.69925,0.69925 -1.15735,0.93342 -1.82599,0.93342 -0.76178,0 -1.19211,0.30132 -2.93687,2.05638 -1.70243,1.71247 -2.04432,2.1992 -2.04432,2.91041 0,0.58276 0.12607,0.85405 0.39688,0.85405 0.3175,0 0.39687,0.39687 0.39687,1.98437 v 1.98438 h -2.11666 -2.11667 z m -31.68494,-6.62481 c -1.56671,-0.65876 -1.71463,-1.20094 -1.85907,-6.81416 -0.12503,-4.85848 -0.15826,-5.11474 -0.75588,-5.82977 -0.83525,-0.99934 -0.8211,-2.28585 0.0364,-3.30488 0.65935,-0.78359 0.66146,-0.80374 0.66146,-6.3118 v -5.5257 l -1.68447,-1.6695 -1.68447,-1.6695 -3.885068,0.0838 c -3.922017,0.0845 -4.08141,0.0532 -4.449499,-0.87606 -0.03874,-0.0978 -3.07993,-0.20941 -6.758186,-0.24799 l -6.68774,-0.0701 -4.706027,4.67976 c -2.588316,2.57386 -4.858335,4.67975 -5.044488,4.67975 -0.18615,0 -0.641186,0.23813 -1.011184,0.52917 -0.860322,0.67672 -2.194489,0.67672 -3.054811,0 -0.555619,-0.43705 -1.073356,-0.52917 -2.974165,-0.52917 -2.157532,0 -2.334945,0.0426 -2.837283,0.68122 -0.743236,0.94487 -1.667669,1.25203 -2.72143,0.90426 -1.158256,-0.38226 -1.731642,-1.07945 -1.896089,-2.30547 -0.266459,-1.98662 1.86359,-3.50417 3.66036,-2.60782 1.119396,0.55843 6.139058,0.57292 7.105387,0.0205 0.84024,-0.48033 1.536878,-0.48906 2.416128,-0.0303 0.687633,0.35879 0.749617,0.30997 4.960937,-3.90716 2.345531,-2.34877 4.264602,-4.48295 4.264602,-4.74262 0,-0.73203 1.200158,-1.77099 2.045769,-1.77099 0.873617,0 1.922981,0.65791 1.922981,1.20563 0,0.32272 1.037921,0.38187 6.700755,0.38187 h 6.700756 l 0.63222,0.67296 c 0.61086,0.65024 0.7341,0.67156 3.648775,0.63121 l 3.01657,-0.0418 2.48275,2.47242 2.48275,2.47243 v 6.05245 6.05244 l 0.66145,0.7861 c 0.95778,1.13826 0.79985,3.08373 -0.3032,3.73521 -0.27177,0.1605 -0.35825,1.03371 -0.35825,3.617 v 3.40541 l 0.78659,0.17277 c 0.43263,0.095 1.09993,0.54515 1.48291,1.00028 1.71929,2.04327 -0.52898,5.05637 -2.9982,4.01814 z m 21.18064,0.0059 c -1.74512,-0.73377 -2.22808,-2.85956 -0.98523,-4.33661 0.54442,-0.647 0.6726,-1.06307 0.63795,-2.07082 -0.0238,-0.69362 -0.0328,-1.38893 -0.0198,-1.54512 0.0129,-0.15619 0.6834,-0.95986 1.48993,-1.78594 1.28664,-1.31783 1.59266,-1.50195 2.49631,-1.50195 2.13933,0 3.2288,0.99609 2.67696,2.44751 -0.32138,0.8453 -1.44416,1.22456 -2.20976,0.74644 -0.43639,-0.27254 -0.61634,-0.23 -1.15069,0.27199 -0.91093,0.85578 -0.88444,2.64163 0.0558,3.75899 1.70619,2.02769 -0.54191,5.04544 -2.99138,4.01551 z m -70.983673,-0.32029 c -2.494676,-1.26877 -1.844571,-4.63828 0.967661,-5.0154 0.788424,-0.10573 1.351113,-0.40333 1.970132,-1.042 l 0.866498,-0.894 h 3.266103 c 2.961765,0 3.340339,-0.0549 4.062797,-0.58902 0.731975,-0.54117 0.852439,-0.55729 1.482949,-0.19843 1.433264,0.81574 1.244693,2.40107 -0.365633,3.07391 -0.717846,0.29994 -1.8138,0.40174 -4.059298,0.37707 -2.75508,-0.0303 -3.149759,0.0243 -3.783343,0.52262 -0.519824,0.4089 -0.707379,0.79576 -0.707379,1.45909 0,0.61719 -0.230111,1.15203 -0.727605,1.69115 -0.943967,1.02294 -1.816068,1.20336 -2.972882,0.61501 z m 13.610336,-7.86541 c -0.357187,-0.35719 -0.649433,-0.84509 -0.649433,-1.08423 0,-0.23913 0.698164,-1.07999 1.551477,-1.86856 l 1.551474,-1.43377 0.1861,-2.31065 c 0.336423,-4.17707 1.325401,-5.87879 3.418136,-5.88154 0.995112,-10e-4 2.55323,1.52387 2.55323,2.49924 0,1.54343 -1.115986,2.79144 -2.496148,2.79144 -0.629235,0 -0.681056,0.0919 -0.70902,1.25677 -0.05869,2.44481 -0.169582,2.72756 -1.723107,4.39348 -2.452349,2.62975 -2.61738,2.70315 -3.682709,1.63782 z m -35.574432,-6.7589 c 0,-1.74187 0.07313,-2.11667 0.413022,-2.11667 0.36503,0 0.406723,-0.79268 0.358813,-6.82181 -0.05803,-7.3027 -0.0031,-7.65743 1.276875,-8.24061 1.516897,-0.69114 3.019491,-0.0891 3.671331,1.47096 0.322482,0.77181 0.320206,1.01656 -0.01695,1.8235 -0.214186,0.51262 -0.750813,1.1377 -1.192503,1.38906 l -0.803073,0.45703 -0.0017,4.96093 c -0.0014,4.23408 0.05647,4.96094 0.395195,4.96094 0.319705,0 0.396875,0.41158 0.396875,2.11667 v 2.11666 H 39.327108 37.07815 Z"
       id="path671"
       sodipodi:nodetypes="sscssscccssscssscccssccssscssscccssssssscccccccccccccccccccccccccccccssssssccccccscscccssscsscccccccccsssscscsssscssssscsssssssscccscccccscsscsccsscssssscssssssscccssscssscccsssssssssccccsscccccccsscssscsscscsssscsscccccccccccscccssssssccccscsssscscssscccssccscscccssssscccccccccccsssssscccsssscsssssssscscssccscsccssscccccccccccccccsssscsscssssssscsssssccccccccccsscccccscssssssscccsssccccccccsssscccccssscscssscccssscsssscccccccccccsscccccsscccccsssccssscccscscccsscccssscscssscccssscssssscsscccccccccccccccccssscssccsssscssssssccccccccccccccccccccccccssscccssssscscssscsscccsssssscccscssssscccsccccccccccccssscccsssssscsscssscssssssssccccscsssscscccccscsssccsssscssssssscssssscsscsssscsssssccccscccssscccccccssscccsssscssscssccssssssssssssccsssssscccssscsccccccccccsssscccccccccccscccscccccccsssscccccssccccccssssscsssscssssccccssscssscsssscssssssssscccssssssccccsccsssssssssssssssscsccccccssscccsscsccssssscccssscssssccsssssscscssssscsscsssccsscccc" />
  </g>
</svg>
